<svg width="127" height="68" viewBox="0 0 127 68" fill="none" xmlns="http://www.w3.org/2000/svg">
<g clip-path="url(#clip0_2390_130)">
<path d="M0.56 57.4799C0.56 56.5499 0.56 55.6099 0.93 55.0499C1.12 54.6799 1.68 54.4899 2.42 54.4899C3.91 54.4899 5.22 55.4199 4.1 56.7299C3.91 55.9799 2.42 55.7999 2.42 56.7299V57.6599H4.29C4.29 58.5899 3.73 59.1499 2.98 59.1499H2.61V64.9399H0.75V59.1499H0V57.6599H0.56V57.4699V57.4799Z" fill="#002035"/>
<path d="M12.3297 63.0899C11.0197 65.3299 8.02971 65.6999 6.16971 63.8399C5.23971 62.7199 4.85971 61.4099 5.23971 59.9199C5.79971 58.2399 8.59971 58.4299 8.59971 59.9199C8.03971 59.5499 6.91971 59.9199 6.91971 61.0399C6.91971 63.8399 11.0297 63.8399 11.0297 61.0399C11.0297 59.5499 9.90971 58.6099 8.59971 58.9899C8.03971 58.2399 6.91971 58.2399 5.98971 58.6199C6.73971 57.6899 7.85971 57.1299 8.97971 57.1299C11.9697 57.3199 13.8397 60.4899 12.3397 63.1099L12.3297 63.0899Z" fill="#002035"/>
<path d="M15.8803 61.0299C15.8803 61.7799 15.8803 62.7099 16.4403 63.0799C16.8103 63.4499 17.5603 63.4499 17.9303 63.0799C18.4903 62.7099 18.4903 61.7699 18.4903 61.0299V58.9799C18.4903 58.0499 19.2403 57.4899 20.3603 57.4899V60.6599C20.3603 61.9699 20.1703 62.8999 19.9903 63.2699C19.4303 64.5799 18.3103 65.1399 17.0003 65.1399C15.5103 65.1399 14.3903 64.5799 14.0103 63.0899C13.8203 62.7199 13.8203 61.7799 13.8203 61.0399V57.6799H15.6903V61.0399H15.8803V61.0299Z" fill="#002035"/>
<path d="M23.5298 57.4799V58.4099C23.8998 57.6599 24.2798 57.2899 25.0198 57.2899C26.5098 57.0999 27.0698 58.9699 26.1398 59.5299C25.7698 58.5999 23.8998 58.9699 23.7098 60.6499V64.9499H21.8398V57.4799H23.5198H23.5298Z" fill="#002035"/>
<path d="M35.3 57.2999C36.05 57.2999 36.79 57.4899 37.35 58.0499C37.54 58.2399 37.72 58.4199 37.72 58.6099C37.91 57.8599 39.03 57.2999 39.77 57.2999C40.51 57.2999 41.26 57.4899 41.82 58.0499C42.19 58.4199 42.38 59.1699 42.38 59.9199V64.7799H40.51C40.51 63.8499 40.51 60.4799 40.32 59.7399C40.13 59.1799 39.95 58.8099 39.2 58.8099C38.45 58.8099 38.08 59.1799 38.08 59.7399C37.89 59.7399 37.71 59.5499 37.52 59.3699V64.5999H35.65C35.65 63.6699 35.65 60.2999 35.46 59.5599C35.27 58.9999 34.9 58.6299 34.34 58.6299C33.59 58.6299 33.22 58.9999 33.22 59.5599C33.03 59.5599 32.66 59.1899 32.66 58.9999V64.5999H30.79V57.3199H32.66V58.2499C33.59 57.6899 34.71 57.3199 35.27 57.3199L35.3 57.2999Z" fill="#002035"/>
<path d="M50.9899 63.0899C49.6799 65.3299 46.6899 65.6999 44.8299 63.8399C43.8999 62.7199 43.5199 61.4099 43.8999 59.9199C44.4599 58.2399 47.2599 58.4299 47.2599 59.9199C46.6999 59.5499 45.5799 59.9199 45.5799 61.0399C45.5799 63.8399 49.6899 63.8399 49.6899 61.0399C49.6899 59.5499 48.5699 58.6099 47.2599 58.9899C46.6999 58.2399 45.5799 58.2399 44.6499 58.6199C45.3999 57.6899 46.5199 57.1299 47.6399 57.1299C50.6299 57.3199 52.4999 60.4899 50.9999 63.1099L50.9899 63.0899Z" fill="#002035"/>
<path d="M54.3502 57.4799V58.4099C54.7202 57.6599 55.1002 57.2899 55.8402 57.2899C57.3302 57.0999 57.8902 58.9699 56.9602 59.5299C56.5902 58.5999 54.7202 58.9699 54.5302 60.6499V64.9499H52.6602V57.4799H54.3402H54.3502Z" fill="#002035"/>
<path d="M60.8898 60.2899C61.4498 60.8499 62.3798 60.6599 63.1298 60.6599C64.9998 60.4699 64.0598 58.7899 62.5698 58.7899C61.4498 58.7899 60.5198 59.7199 60.5198 61.0299C60.5198 62.1499 61.0798 63.0799 62.1998 63.2699C62.9498 63.4599 63.6898 63.0799 64.2498 62.5199L65.7398 63.2699C64.9898 64.3899 63.8698 64.9499 62.5698 64.9499C58.8298 64.9499 57.7098 60.4699 59.7698 58.4099C60.5198 57.6599 61.6398 57.2899 62.5698 57.2899C66.1198 57.2899 66.8698 61.2099 63.8798 61.9599C61.8298 62.5199 60.3298 61.5899 60.8898 60.2799V60.2899Z" fill="#002035"/>
<path d="M72.6497 58.9799C72.2797 59.1699 72.0897 59.3499 72.4597 59.7299C73.0197 60.2899 75.4497 60.6599 75.4497 62.7199C75.4497 65.1499 71.8997 65.8899 70.2197 63.6499L71.3397 62.3399C72.8297 64.0199 74.8897 62.7099 72.8297 61.7799C71.5197 61.2199 70.3997 60.4699 70.3997 59.1699C70.3997 57.8699 71.7097 56.9299 73.0097 57.1199C75.2497 57.3099 75.2497 59.1699 74.1297 59.5499C73.7597 58.9899 72.8197 58.7999 72.6397 58.9899L72.6497 58.9799Z" fill="#002035"/>
<path d="M78.4399 61.0299C78.4399 61.7799 78.4399 62.7099 78.9999 63.0799C79.3699 63.4499 80.1199 63.4499 80.4899 63.0799C81.0499 62.7099 81.0499 61.7699 81.0499 61.0299V58.9799C81.0499 58.0499 81.7999 57.4899 82.9199 57.4899V60.6599C82.9199 61.9699 82.7299 62.8999 82.5499 63.2699C81.9899 64.5799 80.8699 65.1399 79.5599 65.1399C78.0699 65.1399 76.9499 64.5799 76.5699 63.0899C76.3799 62.7199 76.3799 61.7799 76.3799 61.0399V57.6799H78.2499V61.0399H78.4399V61.0299Z" fill="#002035"/>
<path d="M86.2902 58.2299C88.3402 56.1799 92.0802 57.4799 92.0802 61.0299C92.0802 63.2699 90.4002 64.9499 88.5302 64.9499C86.6602 64.9499 86.4802 63.2699 86.6602 62.7099C87.0302 63.2699 87.5902 63.2699 88.1502 63.2699C90.7602 63.2699 90.7602 58.9699 88.1502 58.9699C86.6602 58.9699 86.2802 60.4599 86.2802 61.7699V67.5599H84.4102V58.9699C84.4102 58.0399 85.3402 57.4799 86.2802 57.4799V58.2299H86.2902Z" fill="#002035"/>
<path d="M94.88 58.2299C96.93 56.1799 100.67 57.4799 100.67 61.0299C100.67 63.2699 98.99 64.9499 97.12 64.9499C95.25 64.9499 95.07 63.2699 95.25 62.7099C95.62 63.2699 96.18 63.2699 96.74 63.2699C99.35 63.2699 99.35 58.9699 96.74 58.9699C95.25 58.9699 94.87 60.4599 94.87 61.7699V67.5599H93V58.9699C93 58.0399 93.93 57.4799 94.87 57.4799V58.2299H94.88Z" fill="#002035"/>
<path d="M108.89 63.0899C107.58 65.3299 104.59 65.6999 102.73 63.8399C101.8 62.7199 101.42 61.4099 101.8 59.9199C102.36 58.2399 105.16 58.4299 105.16 59.9199C104.6 59.5499 103.48 59.9199 103.48 61.0399C103.48 63.8399 107.59 63.8399 107.59 61.0399C107.59 59.5499 106.47 58.6099 105.16 58.9899C104.6 58.2399 103.48 58.2399 102.55 58.6199C103.3 57.6899 104.42 57.1299 105.54 57.1299C108.34 57.3199 110.4 60.4899 108.9 63.1099L108.89 63.0899Z" fill="#002035"/>
<path d="M112.06 57.4799V58.4099C112.43 57.6599 112.81 57.2899 113.55 57.2899C115.04 57.0999 115.6 58.9699 114.67 59.5299C114.3 58.5999 112.43 58.9699 112.24 60.6499V64.9499H110.37V57.4799H112.05H112.06Z" fill="#002035"/>
<path d="M118.78 54.8699V57.4799H120.46C120.46 58.2299 120.27 58.9699 119.15 58.9699H118.78V63.0799C118.78 63.6399 119.9 63.6399 120.09 63.0799C120.84 64.9499 116.91 65.6899 116.91 63.2699V58.9699H115.98V57.4799H116.91V56.3599C117.1 55.2399 117.84 54.8699 118.78 54.8699Z" fill="#002035"/>
<path d="M123.64 58.9799C123.27 59.1699 123.08 59.3499 123.45 59.7299C124.01 60.2899 126.44 60.6599 126.44 62.7199C126.44 65.1499 122.89 65.8899 121.21 63.6499L122.33 62.3399C123.82 64.0199 125.88 62.7099 123.82 61.7799C122.51 61.2199 121.39 60.4699 121.39 59.1699C121.39 57.8699 122.7 56.9299 124 57.1199C126.24 57.3099 126.24 59.1699 125.12 59.5499C124.93 58.9899 124 58.7999 123.63 58.9899L123.64 58.9799Z" fill="#002035"/>
<path d="M0 47.3099H11.95V29.1899H26.89V19.0999H11.95V10.5099H29.51V0.619934H0V47.3099Z" fill="#002035"/>
<path d="M108.89 47.3099C120.1 47.3099 126.45 40.5899 126.45 32.9299C126.45 26.7699 123.27 22.8399 117.67 20.5999L112.25 18.3599C108.14 16.6799 105.53 15.9299 105.53 13.8799C105.53 11.8299 107.4 10.8899 110.2 10.8899C113.56 10.8899 116.18 12.0099 119.16 14.0699L125.14 6.59993C121.03 2.48993 115.24 0.619934 110.19 0.619934C100.29 0.619934 93.3801 6.96993 93.3801 14.6299C93.3801 21.1699 97.6801 25.2799 102.53 27.1399L108.13 29.5699C111.87 31.0599 114.29 31.8099 114.29 33.8699C114.29 35.9299 112.8 37.0399 109.06 37.0399C105.7 37.0399 101.78 35.1699 98.4101 32.7399L91.8701 40.9599C96.7301 45.2599 103.08 47.3099 108.87 47.3099H108.89Z" fill="#002035"/>
<path d="M54.3502 47.3099H66.6802L81.0602 0.429932H68.9202C68.9202 0.429932 62.2002 24.8999 61.0802 29.7499H60.8902C59.5802 24.8899 52.8602 0.429932 52.8602 0.429932H40.1602L54.3502 47.3099Z" fill="#E9BC03"/>
<path d="M46.6902 0.429932H34.7402V47.3099H46.6902V0.429932Z" fill="#E9BC03"/>
<path d="M86.4795 0.429932H74.5195V47.3099H86.4795V0.429932Z" fill="#002035"/>
</g>
<defs>
<clipPath id="clip0_2390_130">
<rect width="126.44" height="67.14" fill="white" transform="translate(0 0.429932)"/>
</clipPath>
</defs>
</svg>
