<svg width="159" height="158" viewBox="0 0 159 158" fill="none" xmlns="http://www.w3.org/2000/svg">
<circle cx="79.5" cy="79" r="79" fill="#F3C400"/>
<path d="M73.0774 55.4731C68.8837 50.6065 68.7484 45.2594 72.725 41.3575C76.3206 37.8295 81.9953 37.6836 85.7797 41.0265C90.0446 44.793 90.0375 49.9871 85.737 55.5443C89.4928 55.8541 93.2344 56.1424 96.976 56.4699C100.557 56.7868 104.142 57.093 107.713 57.4988C111.255 57.9046 113.694 60.9022 113.488 64.4409C113.288 67.8586 110.494 70.5428 106.976 70.5784C102.58 70.6247 98.1829 70.5927 93.7862 70.5927C93.3056 70.5927 92.825 70.5927 92.2625 70.5927V77.994C94.1351 78.4675 96.0397 78.8769 97.8981 79.4358C102.305 80.7602 106.524 82.4975 109.935 85.7264C112.889 88.5211 114.356 91.807 112.968 95.9117C112.829 96.3247 112.622 96.7163 112.398 97.2325C111.141 96.5241 109.963 95.8583 108.703 95.1499C109.927 92.5048 108.884 90.4435 106.955 88.7454C102.775 85.0643 97.6097 83.6652 91.9101 82.3835C92.6043 87.9977 93.2629 93.3485 93.9536 98.9342C92.6399 99.1122 91.312 99.2902 89.7919 99.4931C89.5391 97.7558 89.3575 96.0969 89.0514 94.4628C87.4458 85.8795 87.9798 77.2072 87.9335 68.5599C87.9264 67.0753 88.8306 66.3384 90.4825 66.3348C95.8119 66.3242 101.141 66.3206 106.471 66.3348C107.578 66.3348 108.493 66.0465 109.016 65.0034C109.732 63.5829 108.892 61.956 107.215 61.7602C103.865 61.365 100.497 61.1443 97.1469 60.7527C89.8524 59.8983 82.5258 59.6882 75.2063 59.9802C68.5134 60.2472 61.8383 60.9022 55.1561 61.3935C54.049 61.4754 52.9418 61.5608 51.8417 61.7103C50.3216 61.9168 49.4743 62.8424 49.5491 64.1276C49.6238 65.452 50.642 66.3206 52.2191 66.3242C57.4168 66.3384 62.6109 66.3277 67.8085 66.3313C70.2436 66.3313 70.8595 66.9543 70.8595 69.4107C70.8595 74.0317 71.0518 78.6597 70.8061 83.2664C70.564 87.8197 69.8876 92.3481 69.3892 96.8872C69.3002 97.7131 69.1542 98.5319 69.0154 99.4896C67.5558 99.3009 66.2243 99.1265 64.6686 98.9235C66.4949 89.4965 66.9826 80.1372 66.47 70.5962C65.5942 70.5962 64.7149 70.5962 63.8391 70.5962C59.8874 70.5962 55.9322 70.614 51.9806 70.5891C48.3351 70.5677 45.4514 67.9582 45.2485 64.5477C45.0278 60.8168 47.4095 57.8655 51.1618 57.4881C58.4421 56.7583 65.733 56.1389 73.0845 55.4696L73.0774 55.4731ZM74.06 48.0041C73.9568 50.9305 76.2601 53.4154 79.1829 53.5293C82.1021 53.6433 84.612 51.3186 84.7045 48.41C84.8007 45.473 82.4973 42.9916 79.5816 42.8848C76.6588 42.778 74.1597 45.0956 74.0564 48.0041H74.06Z" fill="black"/>
<path d="M59.5205 79.8773C59.9691 81.2479 60.3821 82.5011 60.8271 83.8575C59.6701 84.3274 58.5095 84.662 57.4913 85.2423C55.5368 86.3566 53.4863 87.4033 51.7952 88.8522C48.7016 91.508 48.7941 94.4878 51.8451 97.2539C54.953 100.07 58.7658 101.551 62.7353 102.58C74.0491 105.513 85.3665 105.538 96.659 102.398C96.958 102.316 97.2606 102.242 97.5632 102.174C97.6451 102.156 97.7377 102.174 97.8872 102.174C98.0082 102.484 98.1506 102.804 98.2574 103.135C98.5601 104.103 98.8484 105.072 99.1902 106.193C97.8196 106.592 96.5201 106.973 95.0926 107.389C95.2955 109.02 95.5233 110.629 95.6906 112.249C96.068 115.955 93.8109 119.002 90.2794 119.593C86.8475 120.166 83.647 117.863 82.8638 114.246C82.49 112.519 82.1233 110.793 81.7495 109.041H77.0324C76.6693 110.658 76.2955 112.281 75.9324 113.911C75.1242 117.575 72.0056 119.874 68.5702 119.33C64.9852 118.76 62.721 115.716 63.0913 111.907C63.2408 110.373 63.4651 108.849 63.6217 107.592C60.0973 106.168 56.644 105.015 53.4257 103.388C51.3751 102.352 49.4527 100.828 47.8649 99.1479C44.3441 95.4241 44.3903 90.7782 47.7297 86.8977C50.8233 83.3021 54.9815 81.4651 59.517 79.8844L59.5205 79.8773ZM86.1426 108.689C86.5128 110.447 86.8083 112.01 87.1714 113.555C87.4669 114.809 88.4459 115.503 89.578 115.357C90.7493 115.207 91.6892 114.175 91.5859 112.947C91.4542 111.373 91.1801 109.81 90.9487 108.109C89.3324 108.304 87.8158 108.486 86.139 108.685L86.1426 108.689ZM67.8404 108.19C67.6197 109.938 67.3028 111.594 67.2423 113.253C67.1996 114.378 67.9507 115.14 69.0971 115.357C70.1793 115.56 71.2687 114.926 71.5642 113.805C71.9914 112.188 72.2904 110.54 72.6642 108.835C71.0658 108.621 69.5812 108.425 67.8439 108.19H67.8404Z" fill="black"/>
<path d="M84.2634 99.9453C82.7931 100.248 81.4652 100.522 80.0625 100.814C79.8774 99.9559 79.7207 99.2297 79.4893 98.1688C79.2116 99.1727 79.0123 99.8883 78.7631 100.793C77.4174 100.518 76.0574 100.237 74.5693 99.9346C75.3419 96.2962 76.093 92.7575 76.8442 89.2224C77.0258 88.3573 77.1468 87.4744 77.3818 86.6236C77.6595 85.6196 78.375 85.0322 79.4217 85.0322C80.4683 85.0322 81.2409 85.6018 81.4616 86.6164C82.4121 90.9811 83.3057 95.3635 84.2634 99.9453Z" fill="black"/>
<path d="M105.869 98.2472C106.691 99.3437 107.482 100.401 108.411 101.644C106.848 102.573 105.388 103.445 103.79 104.395C103.146 103.014 102.572 101.797 101.981 100.529C103.309 99.7496 104.559 99.0162 105.873 98.2437L105.869 98.2472Z" fill="black"/>
</svg>
